<?xml version="1.0" standalone="no"?>
<!DOCTYPE svg PUBLIC "-//W3C//DTD SVG 20010904//EN"
 "http://www.w3.org/TR/2001/REC-SVG-20010904/DTD/svg10.dtd">
<svg version="1.0" xmlns="http://www.w3.org/2000/svg"
 width="225.000000pt" height="225.000000pt" viewBox="0 0 225.000000 225.000000"
 preserveAspectRatio="xMidYMid meet">

<g transform="translate(0.000000,225.000000) scale(0.100000,-0.100000)"
fill="#000000" stroke="none">
<path d="M430 2043 c-56 -31 -176 -124 -279 -219 -37 -33 -80 -69 -96 -80 -41
-25 -42 -28 -50 -98 -7 -74 13 -183 50 -263 88 -192 336 -422 715 -661 106
-67 298 -161 407 -198 46 -16 83 -35 83 -42 0 -9 -5 -10 -19 -2 -26 13 -31 13
-31 -4 0 -8 11 -17 25 -20 21 -5 25 -12 25 -43 0 -54 21 -115 37 -109 12 5
194 -83 217 -104 12 -12 100 24 166 67 50 33 88 63 253 201 29 24 88 69 133
101 44 32 103 79 129 104 62 57 65 93 17 155 -37 46 -150 142 -262 223 -63 45
-188 149 -290 241 -14 13 -61 38 -105 56 -44 18 -91 38 -105 44 -33 15 -90 22
-90 11 1 -4 6 -35 13 -68 11 -53 11 -66 -4 -105 -17 -44 -17 -44 -24 -17 -4
15 -13 27 -21 27 -17 0 -19 -82 -4 -145 5 -22 7 -41 5 -44 -12 -11 -130 82
-221 173 -123 124 -193 216 -245 321 -46 93 -73 222 -64 302 6 47 -5 77 -19
54 -3 -5 -34 20 -67 55 -67 69 -144 114 -195 114 -17 0 -55 -12 -84 -27z m120
-12 c0 -5 -17 -17 -37 -26 -21 -10 -42 -20 -47 -23 -25 -14 11 22 38 39 34 21
46 24 46 10z m30 -30 c0 -5 -9 -11 -21 -14 -16 -4 -18 -3 -8 9 13 16 29 19 29
5z m-32 -55 c-15 -13 -53 -34 -85 -46 -32 -12 -63 -26 -70 -32 -7 -6 -13 -6
-13 -1 0 12 56 53 78 58 9 2 37 13 62 24 57 26 61 26 28 -3z m77 14 c3 -5 -1
-10 -10 -10 -9 0 -13 5 -10 10 3 6 8 10 10 10 2 0 7 -4 10 -10z m-22 -71 c-4
-4 -24 -10 -43 -14 -30 -7 -33 -6 -22 7 6 8 25 15 42 15 17 0 27 -4 23 -8z
m147 -111 c0 -138 37 -252 121 -375 80 -117 213 -243 382 -360 59 -41 107 -79
107 -84 0 -6 6 -9 13 -7 6 1 50 -18 97 -44 47 -25 102 -53 123 -61 45 -19 46
-15 17 69 -18 51 -19 68 -10 134 5 41 11 110 12 153 3 67 1 78 -14 83 -20 6
-25 24 -7 24 15 0 55 -44 172 -190 122 -151 283 -312 359 -360 32 -19 56 -39
54 -45 -1 -5 -34 -15 -72 -22 -116 -21 -192 -65 -424 -245 -26 -20 -64 -56
-85 -80 l-38 -43 7 40 c23 143 25 355 2 243 l-7 -33 -14 25 c-14 24 -14 24
-15 3 0 -12 -10 -38 -21 -58 -20 -33 -23 -35 -42 -22 -11 7 -21 21 -23 30 -3
20 33 48 52 40 8 -3 14 -1 14 4 0 12 -235 105 -275 108 -44 4 -187 64 -335
141 -233 121 -448 280 -554 409 -50 62 -111 177 -122 231 -6 30 -4 32 69 72
120 66 252 159 332 233 51 47 83 69 100 69 25 0 25 -1 25 -82z m-314 -3 c-11
-8 -25 -15 -30 -15 -6 0 -2 7 8 15 11 8 25 15 30 15 6 0 2 -7 -8 -15z m140 -4
c-35 -39 -266 -193 -266 -177 0 14 198 178 225 185 51 15 60 14 41 -8z m-462
-46 c-7 -18 0 -19 29 -4 22 10 22 10 2 -6 -40 -33 -52 -35 -69 -16 -16 18 -16
20 1 30 26 15 43 13 37 -4z m101 -21 c-16 -13 -34 -24 -40 -24 -5 0 6 14 25
29 19 16 37 27 40 24 3 -2 -8 -16 -25 -29z m108 -17 c4 3 7 2 6 -3 0 -10 -124
-114 -135 -114 -13 0 -54 43 -54 56 0 7 5 16 12 20 7 5 9 2 5 -8 -8 -22 3 -30
20 -16 11 9 18 8 30 -5 15 -14 19 -13 55 15 30 25 37 36 32 52 -6 18 -5 19 8
9 8 -7 18 -10 21 -6z m-258 -138 c11 -82 5 -102 -14 -48 -12 36 -15 146 -3
135 4 -4 12 -43 17 -87z m150 -92 c9 -40 48 -117 88 -176 16 -24 25 -41 18
-37 -36 23 -149 225 -136 246 10 16 23 3 30 -33z m1205 -104 c0 -5 -4 -14 -9
-21 -6 -10 -10 -9 -14 7 -3 14 0 21 9 21 8 0 14 -3 14 -7z m-1255 -23 c10 -11
16 -20 13 -20 -3 0 -13 9 -23 20 -10 11 -16 20 -13 20 3 0 13 -9 23 -20z m153
-117 c60 -71 191 -182 295 -250 39 -26 66 -48 60 -50 -35 -12 -360 249 -410
329 -34 55 -47 104 -15 58 9 -13 41 -53 70 -87z m1267 10 c-8 -54 -25 -82 -25
-41 0 42 12 88 22 88 6 0 8 -18 3 -47z m-201 -67 c-3 -15 -8 -25 -11 -23 -2 3
-1 17 3 31 3 15 8 25 11 23 2 -3 1 -17 -3 -31z m574 -184 c124 -133 186 -204
157 -181 -85 66 -156 134 -228 217 -46 53 -87 104 -92 111 -21 37 64 -40 163
-147z m-1560 93 c28 -22 51 -44 52 -48 0 -8 -41 23 -105 78 -43 37 -8 18 53
-30z m1036 -21 c9 -23 7 -36 -3 -30 -12 8 -21 46 -11 46 4 0 11 -7 14 -16z
m91 -15 c12 -19 -5 -23 -22 -6 -16 16 -16 17 -1 17 9 0 20 -5 23 -11z m555
-107 c52 -44 105 -96 118 -114 22 -35 29 -68 13 -68 -4 0 -50 46 -101 103 -52
56 -110 119 -129 141 -52 56 -11 31 99 -62z m-510 73 c0 -8 -4 -15 -10 -15 -5
0 -10 7 -10 15 0 8 5 15 10 15 6 0 10 -7 10 -15z m-13 -87 c7 -5 17 -7 22 -4
6 4 15 -3 21 -14 7 -14 8 -20 0 -20 -12 0 -130 58 -130 64 0 7 74 -15 87 -26z
m-523 -163 c27 -11 44 -21 38 -23 -15 -5 -218 86 -233 104 -6 7 24 -4 67 -25
44 -21 101 -46 128 -56z m-19 -110 c33 -18 69 -41 80 -49 18 -14 15 -14 -20 0
-83 34 -315 159 -315 170 0 6 190 -84 255 -121z m55 40 c0 -15 -130 46 -150
71 -9 9 21 -1 68 -25 45 -23 82 -43 82 -46z m1018 -11 c-21 -21 -219 -127
-258 -139 -56 -17 104 87 189 121 55 23 80 30 69 18z m-848 -24 c18 -12 2 -12
-25 0 -13 6 -15 9 -5 9 8 0 22 -4 30 -9z m110 -11 c13 -7 13 -8 0 -8 -8 0 -26
6 -40 15 l-25 15 25 -7 c14 -3 32 -10 40 -15z m-120 -55 c22 -9 40 -22 40 -30
0 -10 -12 -7 -42 12 -65 41 -65 45 2 18z m690 -48 c0 -7 -91 -58 -96 -54 -2 3
17 17 44 31 50 28 52 29 52 23z m-460 -82 c0 -10 -8 -8 -30 4 -44 25 -47 45
-5 25 19 -9 35 -22 35 -29z m-115 16 c16 -18 16 -20 2 -20 -9 0 -21 9 -27 20
-6 11 -7 20 -2 20 5 0 17 -9 27 -20z m405 -4 c0 -3 -15 -14 -32 -26 l-33 -22
28 26 c27 25 37 31 37 22z m-415 -66 c19 -37 19 -39 -5 -33 -11 3 -20 11 -20
18 0 8 -3 20 -6 29 -11 28 15 17 31 -14z m135 0 c0 -18 -19 -11 -30 11 -11 19
-10 20 9 9 12 -6 21 -15 21 -20z m80 -20 c0 -5 -4 -10 -10 -10 -5 0 -10 5 -10
10 0 6 5 10 10 10 6 0 10 -4 10 -10z m-129 -21 c23 -11 39 -22 37 -25 -11 -10
-70 10 -79 27 -12 24 -7 24 42 -2z m87 -81 c4 -35 -3 -35 -53 3 l-40 30 45 -3
c41 -3 45 -6 48 -30z m142 7 c0 -5 -55 -35 -65 -35 -13 0 8 22 29 30 25 10 36
12 36 5z"/>
</g>
</svg>
